<svg id="H-logo_header_svg" data-name="H-logo_header_svg" xmlns="http://www.w3.org/2000/svg" viewBox="0 0 1157.04 265.32"><defs><style>.cls-1{fill:#fff;opacity:0.5;}.cls-2{fill:#514438;}</style></defs><title>logo-h</title><path class="cls-1" d="M1482.27,335.08c-3.07-1.94-7.55-5-30.32,12.4s-48.88,38.41-52.77,40.38-12.79,6.75-20.32,6.5-12.84-3.29-12-11.93,3.53-20.64,6.56-27.9,10.76-23.74,7.67-28.74-9-7.76-15.34-3.28c0,0-11.74-8.31-25.66-3.23s-25.87,11.55-33.63,20.78-16.91,21-25.52,26.32a66.5,66.5,0,0,1-10.74,5.11,9.76,9.76,0,0,1-9-1s5.25-9.78,3.27-15.9-5.34-9.73-10.64-10.26a46.67,46.67,0,0,0-12,.89s3.6-4.75,1.35-10.32-13.69-7.46-22.88-4.91-21.14,8.46-30,18.81-15.49,25.43-19.65,30.19-13,13.16-15.82,14.84-10.28,8.13-12.23,6.47,2.71-17.57,5.73-27.34,6.6-20.1,5.44-30.13-4-18.1-15.13-18.33-23.36,11-23.36,11-.34-14.49-9.85-20-27.85,5.42-32.85,8.79-20.82,19.33-20.82,19.33.77-15.61-1.76-20.06-10.63-8.87-20.37-5.48-19.19,9.84-28.89,22.43c-4.61,6-10.45,17.3-16,24.21-6.11,7.63-11.83,14.55-15,17.92-6.1,6.44-14.71,14.56-20.29,12.36s-1.47-16.72,1.57-23.42,11.9-19.29,12.44-23.47-1.16-9.19-5.07-11.4-7.52.31-13.1-1.06-10.07-7.76-10.64-11.66S932,313,925.28,312.8s-9.46,3.67-13,12.6S896.8,362,889.32,372.89,876.32,395,868,396.4s-6.74-10.28-3.72-20.89,8.8-25.68,12.12-31,7.75-12,7.73-15.92-.32-8.08-7.29-10.28-10.86,3.12-15,10.66-16,32.4-19.9,37.44-15.24,20.14-23.58,24.91-21.14,10.13-24.78,6,3.2-31.79,6.79-39.05,18-24.33,18.54-29.63-.89-12.26-9.25-12.22-10.56,6.74-16.4,10.11-12.22,8.7-30.62,7.66a313.51,313.51,0,0,1-37-4.66S746,309,754.42,290.72s16.51-47.27,16.82-59.91,1-27.13-12.43-37.11-24.94-9.18-30.14-7.67-11.11,7.85-14.78,19-13.2,39.82-16.81,62.14-9.75,62.48-9.34,71.77c0,0-29,29.79-39.5,39.62-8.09,7.58-23.11,19.77-34.3,21.16s-24.84-2.56-24.84-2.56,20.92-7.2,39-19.81,29-26.9,30.11-39.53-14.75-23-30.38-24.32-33,9.56-36.56,12.33-23.37,23-30.37,41-5.26,22-5.26,22A185.16,185.16,0,0,1,538.23,396c-9.65,3.4-21.65,6-22.47,3.33s8.85-15.65,9.94-21.51.78-11.71-.63-15.88-5.33-7.78-5.33-7.78,15.57-9,19.43-17.93,6.6-20.38,3.21-29.28-9.82-13.39-19.57-13.74-31.76,3.38-43.7,13.19a23.23,23.23,0,0,0-1.26-7.46h0l0-.06a22,22,0,0,0-9-10.16c-9-5.16-19.26-5.23-28.45-3.77s-24,3.41-43.65,18.31c-27,20.5-46.63,40.24-52.32,47.62-3.18,4.13-.52,10.61,2.95,11.69,5.37,1.68,9.74-1,30.62-19.57,22.5-20,46.38-35.82,50.5-37.25,6.5-2.25,11.14-4.09,21.25-4.25,3.64-.06,7.87,2.17,9.28,3.92,2.11,2.63,2,8.32-.2,16.13s-10.72,32.66-14,44.38-14.28,46.05-12,50.78,6.44,7.5,10.07,7.2,7.5-4.77,8.87-9.8,10.42-38,10.42-38,18.92-6.78,24.49-8.47,14.76-3.13,17-1.47,4.21,5.56,1.16,10.31-14.93,26.55-7.92,34.88,22.39,7.86,31.52,5.15l36.44-10.81A42.23,42.23,0,0,0,588.28,417c14.91,2.11,31.46,1.21,47-6.13,9.41-4.45,26.72-20.63,33.21-26.95,9.12-8.88,17.37-18.8,17.37-18.8s-.16,25.64.41,29.82,4.26,18.1,10.69,22.53,21.5,8,35.41,2.63,21.35-25.46,21.31-33.54-1.77-20.9-6.53-26.17a128.78,128.78,0,0,0-11.48-10.82,55.3,55.3,0,0,0,17.85,3.54c10.87.51,25.08-.95,28.7-1.8,0,0-7.15,20.94-7.67,29s-1.56,24.81,4.88,30.36,17.59,7.45,25.39,6,15.59-4.25,21.15-8.18,17.77-15.13,17.77-15.13-.23,11.15,4.53,15.87,9.78,6.09,18.42,5.77,21.16-4.56,32.24-20.21,26.53-50,26.53-50,5.33,6.67,12.58,8.86c0,0-8.28,17.6-9.08,26.24s-1.29,23.7,2.08,28.42,11.73,6.08,17.31,5.77,15.87-3.7,25-10.15c5.44-3.83,13.91-12.69,21.52-21.54,5.2-6.05,10-15.91,13.13-20.34,7.75-10.91,21.07-26,24.41-24.92s-.76,15.89-2.13,21.19-4.11,16.46-6.31,21.77-8.81,25.13-8.23,29.3,3.38,8.87,9.79,8.16,9.17-6.57,10.81-13.55,19.34-37.16,29.05-47.51,30.54-26.9,31.67-22.16.36,17-6,26.23-19.91,34.37-19.33,40.5,7.57,10.84,12.86,8.3,9.7-11.19,16.06-24.32,28.49-48.63,32.71-40-8.77,33.77-10.93,48.83-2.69,22.31,7.08,25.61,23.13-1.78,28.41-4.59,13.89-10.38,13.89-10.38a29.39,29.39,0,0,0,7.29,8.61c4.47,3.32,18.7,4.93,24.82,3.79s23.93-7.91,33.1-15.2,10-10.92,10-10.92,11.72,2.29,21.71.74a41.09,41.09,0,0,0,14.5-5.73s-.23,9.76,1.74,14.21,7.3,12.51,20.69,14.12,27-1.52,34.25-7.68,10.26-10.92,10.26-10.92,1.71,8.08,10.65,13.33,19.26,5.21,28.45,3.77,22.26-8.74,41.7-24.16,30.54-25.5,36.66-28.6,17.23-10.39,18.33-14.3S1485.35,337,1482.27,335.08ZM484.69,350.44c-7.79,2.45-16.15,4.16-16.15,4.16s3.65-14.32,7-19.54,13.68-15.3,23.89-17.95,22.83-5.86,25.45-2.53.79,9.84-7.91,17.32S492.48,348,484.69,350.44Zm91.62,30.67c.58-5.37,5.89-15,9.35-20.6s13.42-15.91,20.24-21.29,27-10.64,31.37-2.31-18.83,24-28.16,29.69S576.31,381.11,576.31,381.11ZM718.4,256.88c2.36-12.46,8.77-33.49,11.13-38.89s3.67-17.48,12.06-11.95,10.06,6.46,9,27.27-10.76,43.9-17,55.08-24.94,31.46-24.94,31.46C709.33,304.74,716,269.34,718.4,256.88ZM727,401c-5.37,3.93-17.64,2.31-19.33-.84s-2.5-18.57-2.35-26.56.27-22.67.27-22.67,12.12,8.31,14.91,10.9,11.18,7.38,12.52,15.92S732.42,397.11,727,401Zm491.68-38c-3.13,5.79-2.17,12.25-1,16.34s7.65,7,7.65,7-7.22,5.79-11.86,7.86-19.11,7.33-22.66,2.52,3.63-20.08,7.13-26.6,13.12-16.41,21.28-20.16,11-1,11-1C1227,350.36,1221.86,357.25,1218.72,363Zm18.82,7c-1.23-.84,3.48-6.34,4.6-5.42S1239.36,371.25,1237.55,370Zm111.07-6.92c-5.34,10.62-20.13,27.59-23.65,29.84s-15.41,3.6-19.51,1.2-2.27-8.17,2.32-20.64,15.32-23.3,21.61-28.16,16.32-7.13,18.73-7.89,10.23,1.63,10.23,1.63A206.14,206.14,0,0,1,1348.61,363.09Z" transform="translate(-343 -158.64)"/><path class="cls-2" d="M1496,308.58c-3.07-1.94-7.55-5-30.32,12.4s-48.88,38.41-52.77,40.38-12.79,6.75-20.32,6.5-12.84-3.29-12-11.93,3.53-20.64,6.56-27.9,10.76-23.74,7.67-28.74-9-7.76-15.34-3.28c0,0-11.74-8.31-25.66-3.23s-25.87,11.55-33.63,20.78-16.91,21-25.52,26.32a66.5,66.5,0,0,1-10.74,5.11,9.76,9.76,0,0,1-9-1s5.25-9.78,3.27-15.9-5.34-9.73-10.64-10.26a46.67,46.67,0,0,0-12,.89s3.6-4.75,1.35-10.32-13.69-7.46-22.88-4.91-21.14,8.46-30,18.81-15.49,25.43-19.65,30.19-13,13.16-15.82,14.84-10.28,8.13-12.23,6.47,2.71-17.57,5.73-27.34,6.6-20.1,5.44-30.13-4-18.1-15.13-18.33-23.36,11-23.36,11-.34-14.49-9.85-20-27.85,5.42-32.85,8.79S1065.44,317,1065.44,317s.77-15.61-1.76-20.06-10.63-8.87-20.37-5.48-19.19,9.84-28.89,22.43c-4.61,6-10.45,17.3-16,24.21-6.11,7.63-11.83,14.55-15,17.92-6.1,6.44-14.71,14.56-20.29,12.36s-1.47-16.72,1.57-23.42,11.9-19.29,12.44-23.47-1.16-9.19-5.07-11.4-7.52.31-13.1-1.06-10.07-7.76-10.64-11.66-2.56-10.86-9.25-11.11-9.46,3.67-13,12.6-15.44,36.58-22.92,47.49-13,22.08-21.36,23.51S875,359.62,878,349s8.8-25.68,12.12-31,7.75-12,7.73-15.92-.32-8.08-7.29-10.28-10.86,3.12-15,10.66-16,32.4-19.9,37.44-15.24,20.14-23.58,24.91-21.14,10.13-24.78,6,3.2-31.79,6.79-39.05,18-24.33,18.54-29.63-.89-12.26-9.25-12.22S812.82,296.63,807,300s-12.22,8.7-30.62,7.66a313.51,313.51,0,0,1-37-4.66s20.35-20.53,28.81-38.78,16.51-47.27,16.82-59.91,1-27.13-12.43-37.11-24.94-9.18-30.14-7.67-11.11,7.85-14.78,19-13.2,39.82-16.81,62.14-9.75,62.48-9.34,71.77c0,0-29,29.79-39.5,39.62-8.09,7.58-23.11,19.77-34.3,21.16s-24.84-2.56-24.84-2.56,20.92-7.2,39-19.81,29-26.9,30.11-39.53-14.75-23-30.38-24.32-33,9.56-36.56,12.33-23.37,23-30.37,41-5.26,22-5.26,22A185.16,185.16,0,0,1,552,369.52c-9.65,3.4-21.65,6-22.47,3.33s8.85-15.65,9.94-21.51.78-11.71-.63-15.88-5.33-7.78-5.33-7.78,15.57-9,19.43-17.93,6.6-20.38,3.21-29.28-9.82-13.39-19.57-13.74-31.76,3.38-43.7,13.19a23.23,23.23,0,0,0-1.26-7.46h0l0-.06a22,22,0,0,0-9-10.16c-9-5.16-19.26-5.23-28.45-3.77s-24,3.41-43.65,18.31c-27,20.5-46.63,40.24-52.32,47.62-3.18,4.13-.52,10.61,2.95,11.69,5.37,1.68,9.74-1,30.62-19.57,22.5-20,46.38-35.82,50.5-37.25,6.5-2.25,11.14-4.09,21.25-4.25,3.64-.06,7.87,2.17,9.28,3.92,2.11,2.63,2,8.32-.2,16.13s-10.72,32.66-14,44.38-14.28,46.05-12,50.78,6.44,7.5,10.07,7.2,7.5-4.77,8.87-9.8,10.42-38,10.42-38,18.92-6.78,24.49-8.47,14.76-3.13,17-1.47,4.21,5.56,1.16,10.31-14.93,26.55-7.92,34.88,22.39,7.86,31.52,5.15l36.44-10.81A42.23,42.23,0,0,0,602,390.55c14.91,2.11,31.46,1.21,47-6.13,9.41-4.45,26.72-20.63,33.21-26.95,9.12-8.88,17.37-18.8,17.37-18.8s-.16,25.64.41,29.82,4.26,18.1,10.69,22.53,21.5,8,35.41,2.63,21.35-25.46,21.31-33.54-1.77-20.9-6.53-26.17a128.78,128.78,0,0,0-11.48-10.82,55.3,55.3,0,0,0,17.85,3.54c10.87.51,25.08-.95,28.7-1.8,0,0-7.15,20.94-7.67,29s-1.56,24.81,4.88,30.36,17.59,7.45,25.39,6,15.59-4.25,21.15-8.18,17.77-15.13,17.77-15.13-.23,11.15,4.53,15.87,9.78,6.09,18.42,5.77,21.16-4.56,32.24-20.21,26.53-50,26.53-50,5.33,6.67,12.58,8.86c0,0-8.28,17.6-9.08,26.24s-1.29,23.7,2.08,28.42,11.73,6.08,17.31,5.77,15.87-3.7,25-10.15c5.44-3.83,13.91-12.69,21.52-21.54,5.2-6.05,10-15.91,13.13-20.34,7.75-10.91,21.07-26,24.41-24.92s-.76,15.89-2.13,21.19-4.11,16.46-6.31,21.77-8.81,25.13-8.23,29.3,3.38,8.87,9.79,8.16,9.17-6.57,10.81-13.55,19.34-37.16,29.05-47.51,30.54-26.9,31.67-22.16.36,17-6,26.23-19.91,34.37-19.33,40.5,7.57,10.84,12.86,8.3,9.7-11.19,16.06-24.32,28.49-48.63,32.71-40-8.77,33.77-10.93,48.83-2.69,22.31,7.08,25.61,23.13-1.78,28.41-4.59,13.89-10.38,13.89-10.38a29.39,29.39,0,0,0,7.29,8.61c4.47,3.32,18.7,4.93,24.82,3.79s23.93-7.91,33.1-15.2,10-10.92,10-10.92,11.72,2.29,21.71.74a41.09,41.09,0,0,0,14.5-5.73s-.23,9.76,1.74,14.21,7.3,12.51,20.69,14.12,27-1.52,34.25-7.68,10.26-10.92,10.26-10.92,1.71,8.08,10.65,13.33,19.26,5.21,28.45,3.77,22.26-8.74,41.7-24.16,30.54-25.5,36.66-28.6,17.23-10.39,18.33-14.3S1499.1,310.52,1496,308.58ZM498.45,323.94c-7.79,2.45-16.15,4.16-16.15,4.16s3.65-14.32,7-19.54,13.68-15.3,23.89-17.95,22.83-5.86,25.45-2.53.79,9.84-7.91,17.32S506.24,321.49,498.45,323.94Zm91.62,30.67c.58-5.37,5.89-15,9.35-20.6s13.42-15.91,20.24-21.29,27-10.64,31.37-2.31-18.83,24-28.16,29.69S590.07,354.61,590.07,354.61ZM732.16,230.38c2.36-12.46,8.77-33.49,11.13-38.89S747,174,755.34,179.55s10.06,6.46,9,27.27-10.76,43.9-17,55.08-24.94,31.46-24.94,31.46C723.09,278.24,729.8,242.84,732.16,230.38Zm8.64,144.15c-5.37,3.93-17.64,2.31-19.33-.84s-2.5-18.57-2.35-26.56.27-22.67.27-22.67,12.12,8.31,14.91,10.9,11.18,7.38,12.52,15.92S746.17,370.61,740.8,374.53Zm491.68-38c-3.13,5.79-2.17,12.25-1,16.34s7.65,7,7.65,7-7.22,5.79-11.86,7.86-19.11,7.33-22.66,2.52,3.63-20.08,7.13-26.6,13.12-16.41,21.28-20.16,11-1,11-1C1240.79,323.85,1235.61,330.75,1232.48,336.55Zm18.82,7c-1.23-.84,3.48-6.34,4.6-5.42S1253.12,344.75,1251.3,343.51Zm111.07-6.92c-5.34,10.62-20.13,27.59-23.65,29.84s-15.41,3.6-19.51,1.2-2.27-8.17,2.32-20.64,15.32-23.3,21.61-28.16,16.32-7.13,18.73-7.89,10.23,1.63,10.23,1.63A206.14,206.14,0,0,1,1362.37,336.59Z" transform="translate(-343 -158.64)"/></svg>