<svg version="1.1" id="H-logo_header_svg" data-name="H-logo_header_svg" xmlns="http://www.w3.org/2000/svg" xmlns:xlink="http://www.w3.org/1999/xlink" viewBox="0 0 1143.3 238.8">
<style type="text/css">.st0{fill:#7D9E8C;}</style>
<path class="st0" d="M1139.3,149.9c-3.1-1.9-7.5-5-30.3,12.4c-22.8,17.4-48.9,38.4-52.8,40.4c-3.9,2-12.8,6.7-20.3,6.5
  c-7.5-0.2-12.8-3.3-12-11.9c0.8-8.6,3.5-20.6,6.6-27.9c3-7.3,10.8-23.7,7.7-28.7c-3.1-5-9-7.8-15.3-3.3c0,0-11.7-8.3-25.7-3.2
  c-13.9,5.1-25.9,11.5-33.6,20.8c-7.8,9.2-16.9,21-25.5,26.3c-3.5,2.1-6.7,3.5-10.7,5.1c-5,2-9-1-9-1s5.3-9.8,3.3-15.9
  c-2-6.1-5.3-9.7-10.6-10.3c-5.3-0.5-12,0.9-12,0.9s3.6-4.8,1.3-10.3c-2.3-5.6-13.7-7.5-22.9-4.9c-9.2,2.6-21.1,8.5-30,18.8
  c-8.9,10.4-15.5,25.4-19.7,30.2c-4.2,4.8-13,13.2-15.8,14.8c-2.8,1.7-10.3,8.1-12.2,6.5c-2-1.7,2.7-17.6,5.7-27.3
  c3-9.8,6.6-20.1,5.4-30.1c-1.2-10-4-18.1-15.1-18.3c-11.1-0.2-23.4,11-23.4,11s-0.3-14.5-9.8-20c-9.5-5.5-27.8,5.4-32.8,8.8
  c-5,3.4-20.8,19.3-20.8,19.3s0.8-15.6-1.8-20.1c-2.5-4.4-10.6-8.9-20.4-5.5c-9.7,3.4-19.2,9.8-28.9,22.4c-4.6,6-10.5,17.3-16,24.2
  c-6.1,7.6-11.8,14.5-15,17.9c-6.1,6.4-14.7,14.6-20.3,12.4c-5.6-2.2-1.5-16.7,1.6-23.4c3-6.7,11.9-19.3,12.4-23.5
  c0.5-4.2-1.2-9.2-5.1-11.4c-3.9-2.2-7.5,0.3-13.1-1.1c-5.6-1.4-10.1-7.8-10.6-11.7c-0.6-3.9-2.6-10.9-9.2-11.1
  c-6.7-0.2-9.5,3.7-13,12.6c-3.6,8.9-15.4,36.6-22.9,47.5c-7.5,10.9-13,22.1-21.4,23.5c-8.4,1.4-6.7-10.3-3.7-20.9
  c3-10.6,8.8-25.7,12.1-31c3.3-5.3,7.7-12,7.7-15.9c0-3.9-0.3-8.1-7.3-10.3c-7-2.2-10.9,3.1-15,10.7s-16,32.4-19.9,37.4
  c-3.9,5-15.2,20.1-23.6,24.9c-8.3,4.8-21.1,10.1-24.8,6s3.2-31.8,6.8-39.1c3.6-7.3,18-24.3,18.5-29.6c0.5-5.3-0.9-12.3-9.3-12.2
  c-8.4,0-10.6,6.7-16.4,10.1c-5.8,3.4-12.2,8.7-30.6,7.7c-18.4-1-37-4.7-37-4.7s20.3-20.5,28.8-38.8c8.5-18.2,16.5-47.3,16.8-59.9
  c0.3-12.6,1-27.1-12.4-37.1c-13.4-10-24.9-9.2-30.1-7.7s-11.1,7.9-14.8,19c-3.7,11.2-13.2,39.8-16.8,62.1
  c-3.6,22.3-9.8,62.5-9.3,71.8c0,0-29,29.8-39.5,39.6c-8.1,7.6-23.1,19.8-34.3,21.2c-11.2,1.4-24.8-2.6-24.8-2.6s20.9-7.2,39-19.8
  c18.1-12.6,29-26.9,30.1-39.5s-14.8-23-30.4-24.3c-15.6-1.3-33,9.6-36.6,12.3c-3.5,2.8-23.4,23-30.4,41c-7,18-5.3,22-5.3,22
  s-7.8,3.8-17.4,7.2c-9.7,3.4-21.7,6-22.5,3.3c-0.8-2.8,8.8-15.6,9.9-21.5c1.1-5.9,0.8-11.7-0.6-15.9c-1.4-4.2-5.3-7.8-5.3-7.8
  s15.6-9,19.4-17.9c3.9-8.9,6.6-20.4,3.2-29.3c-3.4-8.9-9.8-13.4-19.6-13.7c-9.8-0.3-31.8,3.4-43.7,13.2c0,0,0.1-3.6-1.3-7.5
  c0,0,0,0,0,0c0,0,0,0,0-0.1c-0.8-2.1-3.8-7.2-9-10.2c-9-5.2-19.3-5.2-28.4-3.8c-9.3,1.5-24,3.4-43.7,18.3
  c-27,20.5-46.6,40.2-52.3,47.6c-3.2,4.1-0.5,10.6,2.9,11.7c5.4,1.7,9.7-1,30.6-19.6c22.5-20,46.4-35.8,50.5-37.3
  c6.5-2.3,11.1-4.1,21.3-4.3c3.6-0.1,7.9,2.2,9.3,3.9c2.1,2.6,2,8.3-0.2,16.1c-2.2,7.8-10.7,32.7-14,44.4
  c-3.3,11.7-14.3,46.1-12,50.8c2.3,4.7,6.4,7.5,10.1,7.2c3.6-0.3,7.5-4.8,8.9-9.8c1.4-5,10.4-38,10.4-38s18.9-6.8,24.5-8.5
  c5.6-1.7,14.8-3.1,17-1.5s4.2,5.6,1.2,10.3c-3,4.8-14.9,26.5-7.9,34.9c7,8.3,22.4,7.9,31.5,5.2c9.1-2.7,36.4-10.8,36.4-10.8
  s8.5,9.2,23.5,11.3c14.9,2.1,31.5,1.2,47-6.1c9.4-4.5,26.7-20.6,33.2-26.9c9.1-8.9,17.4-18.8,17.4-18.8s-0.2,25.6,0.4,29.8
  c0.6,4.2,4.3,18.1,10.7,22.5c6.4,4.4,21.5,8,35.4,2.6c13.9-5.4,21.3-25.5,21.3-33.5c0-8.1-1.8-20.9-6.5-26.2
  c-4.8-5.3-11.5-10.8-11.5-10.8s7,3,17.9,3.5c10.9,0.5,25.1-0.9,28.7-1.8c0,0-7.2,20.9-7.7,29c-0.5,8.1-1.6,24.8,4.9,30.4
  c6.4,5.5,17.6,7.4,25.4,6c7.8-1.4,15.6-4.3,21.1-8.2c5.6-3.9,17.8-15.1,17.8-15.1s-0.2,11.1,4.5,15.9c4.8,4.7,9.8,6.1,18.4,5.8
  c8.6-0.3,21.2-4.6,32.2-20.2c11.1-15.7,26.5-50,26.5-50s5.3,6.7,12.6,8.9c0,0-8.3,17.6-9.1,26.2c-0.8,8.6-1.3,23.7,2.1,28.4
  c3.4,4.7,11.7,6.1,17.3,5.8c5.6-0.3,15.9-3.7,25-10.1c5.4-3.8,13.9-12.7,21.5-21.5c5.2-6.1,10-15.9,13.1-20.3
  c7.8-10.9,21.1-26,24.4-24.9s-0.8,15.9-2.1,21.2c-1.4,5.3-4.1,16.5-6.3,21.8c-2.2,5.3-8.8,25.1-8.2,29.3c0.6,4.2,3.4,8.9,9.8,8.2
  c6.4-0.7,9.2-6.6,10.8-13.5c1.6-7,19.3-37.2,29.1-47.5c9.7-10.4,30.5-26.9,31.7-22.2c1.1,4.7,0.4,17-6,26.2s-19.9,34.4-19.3,40.5
  c0.6,6.1,7.6,10.8,12.9,8.3c5.3-2.5,9.7-11.2,16.1-24.3c6.4-13.1,28.5-48.6,32.7-40c4.2,8.6-8.8,33.8-10.9,48.8
  c-2.2,15.1-2.7,22.3,7.1,25.6s23.1-1.8,28.4-4.6c5.3-2.8,13.9-10.4,13.9-10.4s2.8,5.3,7.3,8.6c4.5,3.3,18.7,4.9,24.8,3.8
  c6.1-1.1,23.9-7.9,33.1-15.2c9.2-7.3,10-10.9,10-10.9s11.7,2.3,21.7,0.7c7.7-1.2,14.5-5.7,14.5-5.7s-0.2,9.8,1.7,14.2
  s7.3,12.5,20.7,14.1c13.4,1.6,27-1.5,34.2-7.7s10.3-10.9,10.3-10.9s1.7,8.1,10.7,13.3c8.9,5.3,19.3,5.2,28.4,3.8
  c9.2-1.4,22.3-8.7,41.7-24.2c19.4-15.4,30.5-25.5,36.7-28.6c6.1-3.1,17.2-10.4,18.3-14.3C1144,156.6,1142.3,151.9,1139.3,149.9z
  M141.7,165.3c-7.8,2.5-16.1,4.2-16.1,4.2s3.7-14.3,7-19.5c3.3-5.2,13.7-15.3,23.9-17.9c10.2-2.6,22.8-5.9,25.4-2.5
  c2.6,3.3,0.8,9.8-7.9,17.3C165.2,154.2,149.5,162.9,141.7,165.3z M233.3,196c0.6-5.4,5.9-15,9.4-20.6c3.5-5.6,13.4-15.9,20.2-21.3
  s27-10.6,31.4-2.3c4.4,8.3-18.8,24-28.2,29.7C256.8,187.2,233.3,196,233.3,196z M375.4,71.7c2.4-12.5,8.8-33.5,11.1-38.9
  c2.4-5.4,3.7-17.5,12.1-11.9c8.4,5.5,10.1,6.5,9,27.3c-1,20.8-10.8,43.9-17,55.1c-6.3,11.2-24.9,31.5-24.9,31.5
  C366.3,119.6,373,84.2,375.4,71.7z M384,215.9c-5.4,3.9-17.6,2.3-19.3-0.8c-1.7-3.2-2.5-18.6-2.4-26.6c0.1-8,0.3-22.7,0.3-22.7
  s12.1,8.3,14.9,10.9c2.8,2.6,11.2,7.4,12.5,15.9C391.4,201.2,389.4,212,384,215.9z M875.7,177.9c-3.1,5.8-2.2,12.3-1,16.3
  c1.1,4.1,7.7,7,7.7,7s-7.2,5.8-11.9,7.9c-4.6,2.1-19.1,7.3-22.7,2.5c-3.6-4.8,3.6-20.1,7.1-26.6c3.5-6.5,13.1-16.4,21.3-20.2
  c8.2-3.8,11-1,11-1C884,165.2,878.9,172.1,875.7,177.9z M894.5,184.9c-1.2-0.8,3.5-6.3,4.6-5.4C900.3,180.4,896.4,186.1,894.5,184.9
  z M1005.6,178c-5.3,10.6-20.1,27.6-23.6,29.8c-3.5,2.2-15.4,3.6-19.5,1.2c-4.1-2.4-2.3-8.2,2.3-20.6c4.6-12.5,15.3-23.3,21.6-28.2
  c6.3-4.9,16.3-7.1,18.7-7.9c2.4-0.8,10.2,1.6,10.2,1.6S1011,167.3,1005.6,178z"/>
</svg>